<svg width="99" height="33" viewBox="0 0 99 33" fill="none" xmlns="http://www.w3.org/2000/svg">
<g filter="url(#filter0_d_2_23)">
<path d="M4.32 24V1.48H11.44L16.72 22.24H16.8L22.04 1.48H29.12V24H24.88L25.16 3.32H25.12L19.72 24H13.72L8.4 3.32H8.32L8.56 24H4.32ZM38.495 24.4C36.2283 24.4 34.615 23.6267 33.655 22.08C32.695 20.5333 32.215 18.5067 32.215 16C32.215 13.4667 32.695 11.4267 33.655 9.88C34.6417 8.30667 36.255 7.52 38.495 7.52C39.775 7.52 40.7883 7.74667 41.535 8.2C42.2817 8.62667 42.8417 9.10667 43.215 9.64C43.5883 10.1733 43.815 10.5733 43.895 10.84H43.975V7.56H48.175V24H44.655L43.975 21.32H43.895C43.815 21.56 43.575 21.9333 43.175 22.44C42.8017 22.92 42.2283 23.3733 41.455 23.8C40.7083 24.2 39.7217 24.4 38.495 24.4ZM40.175 20.96C41.6683 20.96 42.6683 20.4933 43.175 19.56C43.7083 18.6 43.975 17.4267 43.975 16.04C43.975 14.5733 43.7083 13.3867 43.175 12.48C42.6417 11.5733 41.6417 11.12 40.175 11.12C39.135 11.12 38.3217 11.3467 37.735 11.8C37.175 12.2533 36.775 12.8533 36.535 13.6C36.3217 14.32 36.215 15.1333 36.215 16.04C36.215 16.9467 36.3217 17.7733 36.535 18.52C36.775 19.2667 37.175 19.8667 37.735 20.32C38.3217 20.7467 39.135 20.96 40.175 20.96ZM51.18 24V7.56H54.98L55.26 12.12C55.42 11.4267 55.7267 10.7333 56.18 10.04C56.66 9.32 57.3133 8.73333 58.14 8.28C58.9933 7.8 60.0867 7.56 61.42 7.56H62.02V12.12H61.42C59.1267 12.12 57.5267 12.4933 56.62 13.24C55.7133 13.96 55.26 15.1867 55.26 16.92V24H51.18ZM65.9356 24.04V10.44H63.6956V7.56H65.9356V4.88C65.9356 3.44 66.2556 2.4 66.8956 1.76C67.5623 1.12 68.549 0.799998 69.8556 0.799998H74.1756V3.96H70.0156V7.56H74.0556V10.44H70.0156V24.04H65.9356ZM82.9034 24C81.5968 24 80.6101 23.68 79.9434 23.04C79.3034 22.4 78.9834 21.36 78.9834 19.92V10.44H76.5034V7.56C77.2768 7.56 77.8768 7.48 78.3034 7.32C78.7301 7.16 79.0368 6.78667 79.2234 6.2C79.4101 5.61333 79.5034 4.66667 79.5034 3.36H82.7834V7.56H86.5434V10.44H82.7834V20.8H86.6234V24H82.9034Z" fill="white"/>
<path d="M92.0509 24C91.0643 24 90.4109 23.76 90.0909 23.28C89.7709 22.8 89.6109 22.2133 89.6109 21.52C89.6109 20.88 89.7709 20.32 90.0909 19.84C90.4376 19.36 91.0909 19.12 92.0509 19.12C92.9576 19.12 93.5709 19.36 93.8909 19.84C94.2376 20.32 94.4109 20.88 94.4109 21.52C94.4109 22.2133 94.2376 22.8 93.8909 23.28C93.5709 23.76 92.9576 24 92.0509 24Z" fill="#F6D88C"/>
</g>
<defs>
<filter id="filter0_d_2_23" x="0.320007" y="0.799805" width="98.0909" height="31.6001" filterUnits="userSpaceOnUse" color-interpolation-filters="sRGB">
<feFlood flood-opacity="0" result="BackgroundImageFix"/>
<feColorMatrix in="SourceAlpha" type="matrix" values="0 0 0 0 0 0 0 0 0 0 0 0 0 0 0 0 0 0 127 0" result="hardAlpha"/>
<feOffset dy="4"/>
<feGaussianBlur stdDeviation="2"/>
<feComposite in2="hardAlpha" operator="out"/>
<feColorMatrix type="matrix" values="0 0 0 0 0 0 0 0 0 0 0 0 0 0 0 0 0 0 0.25 0"/>
<feBlend mode="normal" in2="BackgroundImageFix" result="effect1_dropShadow_2_23"/>
<feBlend mode="normal" in="SourceGraphic" in2="effect1_dropShadow_2_23" result="shape"/>
</filter>
</defs>
</svg>
