<svg width="91" height="25" viewBox="0 0 91 25" fill="none" xmlns="http://www.w3.org/2000/svg">
<path d="M0.32 24V1.48H7.44L12.72 22.24H12.8L18.04 1.48H25.12V24H20.88L21.16 3.32H21.12L15.72 24H9.72L4.4 3.32H4.32L4.56 24H0.32ZM34.495 24.4C32.2283 24.4 30.615 23.6267 29.655 22.08C28.695 20.5333 28.215 18.5067 28.215 16C28.215 13.4667 28.695 11.4267 29.655 9.88C30.6417 8.30667 32.255 7.52 34.495 7.52C35.775 7.52 36.7883 7.74667 37.535 8.2C38.2817 8.62667 38.8417 9.10667 39.215 9.64C39.5883 10.1733 39.815 10.5733 39.895 10.84H39.975V7.56H44.175V24H40.655L39.975 21.32H39.895C39.815 21.56 39.575 21.9333 39.175 22.44C38.8017 22.92 38.2283 23.3733 37.455 23.8C36.7083 24.2 35.7217 24.4 34.495 24.4ZM36.175 20.96C37.6683 20.96 38.6683 20.4933 39.175 19.56C39.7083 18.6 39.975 17.4267 39.975 16.04C39.975 14.5733 39.7083 13.3867 39.175 12.48C38.6417 11.5733 37.6417 11.12 36.175 11.12C35.135 11.12 34.3217 11.3467 33.735 11.8C33.175 12.2533 32.775 12.8533 32.535 13.6C32.3217 14.32 32.215 15.1333 32.215 16.04C32.215 16.9467 32.3217 17.7733 32.535 18.52C32.775 19.2667 33.175 19.8667 33.735 20.32C34.3217 20.7467 35.135 20.96 36.175 20.96ZM47.18 24V7.56H50.98L51.26 12.12C51.42 11.4267 51.7267 10.7333 52.18 10.04C52.66 9.32 53.3133 8.73333 54.14 8.28C54.9933 7.8 56.0867 7.56 57.42 7.56H58.02V12.12H57.42C55.1267 12.12 53.5267 12.4933 52.62 13.24C51.7133 13.96 51.26 15.1867 51.26 16.92V24H47.18ZM61.9356 24.04V10.44H59.6956V7.56H61.9356V4.88C61.9356 3.44 62.2556 2.4 62.8956 1.76C63.5623 1.12 64.549 0.799998 65.8556 0.799998H70.1756V3.96H66.0156V7.56H70.0556V10.44H66.0156V24.04H61.9356ZM78.9034 24C77.5968 24 76.6101 23.68 75.9434 23.04C75.3034 22.4 74.9834 21.36 74.9834 19.92V10.44H72.5034V7.56C73.2768 7.56 73.8768 7.48 74.3034 7.32C74.7301 7.16 75.0368 6.78667 75.2234 6.2C75.4101 5.61333 75.5034 4.66667 75.5034 3.36H78.7834V7.56H82.5434V10.44H78.7834V20.8H82.6234V24H78.9034Z" fill="#181817"/>
<path d="M88.0509 24C87.0643 24 86.4109 23.76 86.0909 23.28C85.7709 22.8 85.6109 22.2133 85.6109 21.52C85.6109 20.88 85.7709 20.32 86.0909 19.84C86.4376 19.36 87.0909 19.12 88.0509 19.12C88.9576 19.12 89.5709 19.36 89.8909 19.84C90.2376 20.32 90.4109 20.88 90.4109 21.52C90.4109 22.2133 90.2376 22.8 89.8909 23.28C89.5709 23.76 88.9576 24 88.0509 24Z" fill="#F6D88C"/>
</svg>
